<?xml version="1.0" encoding="utf-8"?>
<!-- Svg Vector Icons : http://www.onlinewebfonts.com/icon -->
<!DOCTYPE svg PUBLIC "-//W3C//DTD SVG 1.1//EN" "http://www.w3.org/Graphics/SVG/1.1/DTD/svg11.dtd">
<svg version="1.1" xmlns="http://www.w3.org/2000/svg" xmlns:xlink="http://www.w3.org/1999/xlink" x="0px" y="0px" viewBox="0 0 1000 1000" enable-background="new 0 0 1000 1000" xml:space="preserve">
<metadata> Svg Vector Icons : http://www.onlinewebfonts.com/icon </metadata>
<g><g id="_x35_151e0c8492e5103c096af88a5006e1e"><path id="XMLID_1_" d="M22.4,520.6c43.3-10.8,102.2-25.6,205.4-28.3c-2.9-5.7-5.4-11.6-7.7-17.7C180,474.3,56.3,480,13.9,490.5c-0.2,0.1-0.5,0.1-0.8,0.1c-1.4,0-2.7-1-3.1-2.4c-0.4-1.7,0.6-3.4,2.3-3.8c42-10.4,162.7-16.1,205.4-16c-9.6-28.3-13.9-60.7-13.9-96.9c0-64.3,20-88.5,46.9-122.8c-20.6-73.3,7.4-123.3,7.4-123.3s43.2-9,124.9,49.5c44.3-19,162.3-20.5,218.2-4.2c34.3-22.7,97-54.8,122.3-45.8c6.8,11,21.6,43.2,8.9,113.8c8.6,15.5,53.2,48.5,53.4,141.8c-0.7,34.4-4.3,63.4-10.9,88c106.5-0.9,169.2,7.9,212.3,15.8c1.7,0.3,2.8,2,2.5,3.7c-0.3,1.5-1.6,2.6-3.1,2.6c-0.2,0-0.4,0-0.6,0c-43.1-8-105.9-16.7-213-15.8c-1.9,6.2-4,12.2-6.3,17.8c36.5,1.2,136.6,5.1,218.3,30.1c1.7,0.5,2.6,2.3,2.1,4c-0.4,1.3-1.7,2.2-3,2.2c-0.3,0-0.6,0-0.9-0.1c-82.8-25.3-185.1-28.8-219.2-29.9c-29.6,65.1-90.4,89.4-188.6,99.5c31.8,20,41,45.2,41,113.2c0,68-0.9,77.1-0.7,92.7c0.3,25.7,37.9,38,36.5,46.2c-1.4,8.2-31.5,6.9-45.5,2c-39.8-13.9-35.8-47-35.8-47l-1.3-90.9c0,0,2.7-48.9-15.3-48.9c0,9.8,0,113.6,0,148.8c0,32.3,22.6,42.2,22.6,54.1c0,20.5-41.4-1.9-54.1-14.8c-19.4-19.5-17.2-60.9-16.7-93.6c0.4-31.6-0.3-100.7-0.3-100.7l-13.2,0.3c0,0,5.4,150.9-7,178.4c-16,35.3-64.2,47.4-64.2,31.4c0-10.8,11.9-7.4,18.5-31.6c5.6-20.6,3.7-174.5,3.7-174.5s-15.5,9.1-15.5,38c0,13.2-0.4,88.5-0.4,110.9c0,28.2-40,44.3-59.3,44.3c-9.8,0-21.9-0.5-21.9-5.6c0-13,36.6-20.7,36.6-47.8c0-23.5-0.5-84-0.5-84s-18.5,3.2-44.8,3.2c-66.4,0-87.4-42.4-97.4-66.1c-13-30.9-29.9-45.4-47.8-57c-11-7.1-13.5-15.5-0.8-17.9c58.8-11.1,73.8,66.7,113.1,79c28,8.8,64,5,82-6.6c2.4-23.8,19.5-44.3,33.7-55.1c-99.9-9.6-159.1-44.3-189.7-100c-104.5,2.5-163.7,17.3-207.2,28.2c-3.2,0.8-6.3,1.6-9.2,2.3c-0.3,0.1-0.5,0.1-0.8,0.1c-1.4,0-2.7-1-3.1-2.4c-0.4-1.7,0.6-3.4,2.3-3.8C16.2,522.2,19.2,521.4,22.4,520.6z"/></g></g>
</svg>