<?xml version="1.0" encoding="utf-8"?>
<!-- Svg Vector Icons : http://www.onlinewebfonts.com/icon -->
<!DOCTYPE svg PUBLIC "-//W3C//DTD SVG 1.1//EN" "http://www.w3.org/Graphics/SVG/1.1/DTD/svg11.dtd">
<svg version="1.1" xmlns="http://www.w3.org/2000/svg" xmlns:xlink="http://www.w3.org/1999/xlink" x="0px" y="0px" viewBox="0 0 1000 1000" enable-background="new 0 0 1000 1000" xml:space="preserve">
<metadata> Svg Vector Icons : http://www.onlinewebfonts.com/icon </metadata>
<g><path d="M534.7,130h239.5L612,450.8l1.1,1.8h37.5l151.2-298.5l149.5,298.5H990L828.8,130h0.1V95.8H562v-22c0-35.2-30.3-63.7-67.4-63.7c-37.2,0-67.3,28.5-67.3,63.7v22H168.6V130h3.4L10,450.8l1,1.8h37.6l150.9-298.5L349,452.6h39L226.7,130h225.5v743.8l-283.5,80.5V990h660.2v-35.6L534.7,874V130L534.7,130z M387.9,500c0-2.1-0.1-3.9-0.2-5.9H10.4c-0.1,2-0.4,3.8-0.4,5.9c0,98.7,84.5,178.6,188.9,178.6C303.5,678.6,387.9,598.7,387.9,500L387.9,500z M612.3,494.1c-0.1,2-0.4,3.8-0.4,5.9c0,98.7,84.6,178.6,189.1,178.6c104.2,0,188.6-79.9,188.6-178.6c0-2.1-0.1-3.9-0.4-5.9H612.3L612.3,494.1z"/></g>
</svg>